<svg width="35" height="28" viewBox="0 0 35 28" fill="none" xmlns="http://www.w3.org/2000/svg">
<path d="M0.0587712 12.6323C-0.292397 16.8235 0.936691 20.3161 3.57045 23.4595C6.20421 26.6029 9.7159 28 13.9299 28H31.4883C32.3662 28 33.2442 27.6507 33.9465 26.9522C34.6488 26.2537 35 25.3805 35 24.5073V23.1103C35 22.0625 34.8244 20.84 34.6488 19.2683H20.2509C18.4951 19.2683 17.0904 18.5698 15.8613 17.3474C14.6322 16.1249 13.9299 14.5532 13.9299 12.9815C13.9299 10.1874 15.159 8.26646 17.7928 7.21866L26.2208 3.55136C23.2359 1.45576 19.7242 0.233332 15.6858 0.0586992C11.8229 -0.290567 8.31122 0.931865 5.15071 3.37673C1.9902 5.82159 0.409939 8.79035 0.0587712 12.6323ZM17.4416 12.9815C17.4416 13.6801 17.7928 14.3786 18.3195 14.9025C18.8463 15.4264 19.5486 15.7757 20.2509 15.7757H33.9465C32.893 11.9338 31.3127 8.79036 29.0301 6.34549L19.1974 10.3621C17.9683 10.7113 17.4416 11.5845 17.4416 12.9815Z" fill="#121214"/>
</svg>
