<svg width="22" height="22" viewBox="0 0 22 22" fill="none" xmlns="http://www.w3.org/2000/svg">
<path d="M5.51462 4.12671C5.15604 4.12635 4.8009 4.19671 4.46953 4.33377C4.13817 4.47083 3.83709 4.67189 3.58353 4.92545C3.32997 5.17901 3.12891 5.48009 2.99185 5.81145C2.85479 6.14282 2.78443 6.49796 2.78479 6.85654C2.78479 8.90346 5.51462 11.9257 5.51462 11.9257C5.51462 11.9257 8.24446 8.90346 8.24446 6.85654C8.24482 6.49796 8.17446 6.14282 8.0374 5.81145C7.90034 5.48009 7.69928 5.17901 7.44571 4.92545C7.19215 4.67189 6.89108 4.47083 6.55971 4.33377C6.22835 4.19671 5.87321 4.12635 5.51462 4.12671ZM5.51462 7.83096C5.3219 7.83096 5.13351 7.77381 4.97327 7.66674C4.81303 7.55967 4.68813 7.40749 4.61438 7.22944C4.54063 7.05139 4.52133 6.85546 4.55893 6.66644C4.59653 6.47743 4.68933 6.3038 4.82561 6.16753C4.96188 6.03125 5.13551 5.93845 5.32452 5.90085C5.51354 5.86325 5.70947 5.88255 5.88752 5.9563C6.06557 6.03005 6.21775 6.15494 6.32482 6.31519C6.43189 6.47543 6.48904 6.66382 6.48904 6.85654C6.4888 7.1149 6.38606 7.36261 6.20337 7.54529C6.02069 7.72798 5.77298 7.83072 5.51462 7.83096Z" fill="#121214"/>
<path d="M19.272 10.3546V6.41294C19.2656 5.99902 19.2027 5.58792 19.085 5.19103C18.7842 4.14174 18.1186 3.23438 17.208 2.63248C16.2974 2.03058 15.2017 1.77372 14.1185 1.90818C13.0353 2.04265 12.0357 2.5596 11.2999 3.36587C10.5641 4.17214 10.1405 5.21471 10.1054 6.30569V6.53303L10.0962 7.33053V16.4532H10.0925V16.4908C10.0925 16.977 9.89937 17.4433 9.55556 17.7871C9.21174 18.131 8.74543 18.3241 8.2592 18.3241C7.77297 18.3241 7.30665 18.131 6.96283 17.7871C6.61902 17.4433 6.42586 16.977 6.42586 16.4908C6.42586 16.4798 6.42861 16.4688 6.42953 16.4569H6.42586V14.6758H4.59253V16.5091H4.59436C4.59497 17.4811 4.98167 18.413 5.66939 19.0999C6.35711 19.7867 7.28951 20.1723 8.26149 20.1717C9.23346 20.171 10.1654 19.7843 10.8522 19.0966C11.5391 18.4089 11.9246 17.4765 11.924 16.5045H11.9259V15.6044H11.9304V8.24719L11.9396 6.53303V6.30661C11.9657 5.58497 12.2746 4.90255 12.7994 4.40661C13.3243 3.91068 14.0232 3.64101 14.7451 3.65581C15.4671 3.67061 16.1543 3.96869 16.6584 4.48572C17.1625 5.00275 17.4431 5.69726 17.4396 6.41936V10.3381C17.0886 10.5367 16.8129 10.8456 16.6553 11.2169C16.4977 11.5881 16.467 12.001 16.5679 12.3915C16.6688 12.782 16.8958 13.1283 17.2136 13.3767C17.5313 13.625 17.9222 13.7616 18.3255 13.7653C18.7288 13.7689 19.1221 13.6394 19.4443 13.3967C19.7665 13.1541 19.9996 12.812 20.1076 12.4234C20.2155 12.0348 20.1922 11.6214 20.0413 11.2474C19.8904 10.8733 19.6203 10.5595 19.2729 10.3546H19.272Z" fill="#121214"/>
</svg>
