<svg width="31" height="32" viewBox="0 0 31 32" fill="none" xmlns="http://www.w3.org/2000/svg">
<path fill-rule="evenodd" clip-rule="evenodd" d="M15.4994 10.6667C15.4994 16.1573 12.4856 20.6791 8.61079 21.2684V29.3333H22.388V21.3742H18.3177C17.683 21.3745 17.0667 21.1536 16.5688 20.7472C16.0709 20.3409 15.7204 19.7729 15.5741 19.1353C15.4278 18.4977 15.4943 17.8278 15.7629 17.2341C16.0314 16.6404 16.4862 16.1576 17.0537 15.864C16.8031 14.9933 16.8771 14.0572 17.2613 13.24C17.6455 12.4228 18.312 11.7835 19.1297 11.448C18.9872 10.8085 18.9862 10.1441 19.1268 9.50417C19.2675 8.86425 19.5461 8.26531 19.942 7.75192C20.3379 7.23854 20.8408 6.82393 21.4134 6.53897C21.986 6.254 22.6135 6.10601 23.2491 6.10601C23.8848 6.10601 24.5123 6.254 25.0848 6.53897C25.6574 6.82393 26.1604 7.23854 26.5563 7.75192C26.9522 8.26531 27.2308 8.86425 27.3714 9.50417C27.512 10.1441 27.5111 10.8085 27.3685 11.448C28.1862 11.7835 28.8527 12.4228 29.2369 13.24C29.6211 14.0572 29.6952 14.9933 29.4446 15.864C30.012 16.1576 30.4668 16.6404 30.7354 17.2341C31.0039 17.8278 31.0704 18.4977 30.9241 19.1353C30.7779 19.7729 30.4274 20.3409 29.9294 20.7472C29.4315 21.1536 28.8153 21.3745 28.1805 21.3742H24.1102V29.3333H29.7072C30.0498 29.3333 30.3783 29.4738 30.6205 29.7239C30.8628 29.9739 30.9988 30.313 30.9988 30.6667C30.9988 31.0203 30.8628 31.3594 30.6205 31.6095C30.3783 31.8595 30.0498 32 29.7072 32H1.29162C0.94906 32 0.620531 31.8595 0.378306 31.6095C0.136081 31.3594 0 31.0203 0 30.6667C0 30.313 0.136081 29.9739 0.378306 29.7239C0.620531 29.4738 0.94906 29.3333 1.29162 29.3333H6.88863V21.2684C3.01378 20.6791 0 16.1573 0 10.6667C0 4.776 3.47015 0 7.74971 0C12.0293 0 15.4994 4.776 15.4994 10.6667Z" fill="#121214"/>
</svg>
